<?xml version="1.0" encoding="iso-8859-1"?>
<!-- Generator: Adobe Illustrator 16.0.0, SVG Export Plug-In . SVG Version: 6.00 Build 0)  -->
<!DOCTYPE svg PUBLIC "-//W3C//DTD SVG 1.1//EN" "http://www.w3.org/Graphics/SVG/1.1/DTD/svg11.dtd">
<svg version="1.1" id="Capa_1" xmlns="http://www.w3.org/2000/svg" xmlns:xlink="http://www.w3.org/1999/xlink" x="0px" y="0px"
	 width="121.562px" height="121.562px" viewBox="0 0 121.562 121.562" style="enable-background:new 0 0 121.562 121.562;"
	 xml:space="preserve">
<g>
	<g>
		<path d="M116.811,57.859v-2.497h-6v2.497V67.86c-0.752-1.631-2.391-2.771-4.305-2.771H92.188h-19.2h-57.93
			c-1.913,0-3.552,1.14-4.303,2.771V57.859v-2.497h-6v2.497H0v40.312h10.753V82.337h69.441h5.224h25.391V98.17h10.754V57.859
			H116.811z M110.811,76.337H85.633h-5.645H10.754v-4.523c0.751,1.631,2.39,2.771,4.303,2.771h64.385h6.737h20.326
			c1.914,0,3.553-1.14,4.305-2.771V76.337z"/>
		<path d="M16.001,62.671h9.5c1.749,0,3.167-1.418,3.167-3.167c0-1.191-0.666-2.217-1.638-2.757c4.786-0.7,8.444-4.83,8.401-9.803
			c-0.046-5.431-4.486-9.795-9.917-9.748c-5.431,0.046-9.795,4.487-9.749,9.918c0.038,4.299,2.833,7.92,6.688,9.223H16
			c-1.749,0-3.167,1.418-3.167,3.167S14.252,62.671,16.001,62.671z"/>
		<path d="M70.579,47.949c-1.288-2.114-3.401-3.726-6.231-3.7l-21.706,0.187c-4.028,0.034-6.7,3.594-7.477,6.886
			c0,0-0.301,1.038-0.267,2.141c0.033,1.053,0.288,2.225,0.288,2.225l0.004,0.029c0.838,3.3,3.564,6.801,7.608,6.765l21.706-0.187
			c1.391-0.013,2.611-0.447,3.654-1.145c0.096,0.006,0.186,0.028,0.283,0.028c0,0,0.001,0,0.002,0l33.818-0.015
			c2.668-0.002,4.832-2.166,4.83-4.835c0-2.668-2.164-4.831-4.832-4.831h-0.002l-30.793,0.014
			C71.497,49.209,70.579,47.949,70.579,47.949z"/>
		<path d="M41.678,26.501c-0.917,3.79-1.274,4.688-1.785,8.082c0.205,0.695,0.308,1.044,0.513,1.733
			c2.32-0.245,3.481-0.367,5.802-0.612c-0.181-0.498-0.271-0.765-0.452-1.334c-1.587,0.003-2.38-0.017-3.967-0.108
			c0.625-2.872,1.041-4.037,2.072-8.02c-0.143-0.836-0.214-1.263-0.356-2.142c-2.682-0.281-4.023-0.425-6.705-0.708
			c0.26,0.939,0.39,1.407,0.649,2.336C39.141,26.086,39.987,26.238,41.678,26.501z"/>
		<path d="M48.361,30.302c-0.866,2.437-1.246,2.973-1.901,4.464c0.122,0.371,0.182,0.549,0.303,0.881
			c1.883-0.199,2.825-0.299,4.708-0.498c-0.099-0.292-0.146-0.464-0.245-0.861c-1.148,0.073-1.722,0.104-2.871,0.148
			c0.716-1.351,1.123-2.08,2.038-4.382c-0.084-0.668-0.127-1.021-0.212-1.766c-2.048-0.124-3.071-0.206-5.119-0.45
			c0.156,0.936,0.233,1.385,0.389,2.255C46.615,30.214,47.198,30.255,48.361,30.302z"/>
		<path d="M54.324,30.169c-1.068,2.177-1.55,3.101-2.409,4.291c0.07,0.282,0.104,0.408,0.174,0.624
			c1.883-0.199,2.824-0.299,4.708-0.497c-0.031-0.349-0.046-0.54-0.077-0.96c-1.148,0.17-1.723,0.256-2.871,0.412
			c0.913-1.303,1.419-2.271,2.533-4.312c-0.027-0.556-0.039-0.846-0.066-1.453c-2.048,0.074-3.072,0.176-5.12,0.069
			c0.088,0.855,0.132,1.256,0.221,1.999C52.58,30.329,53.161,30.27,54.324,30.169z"/>
		<path d="M60.29,29.532c-1.272,1.828-1.856,2.826-2.918,4.239c0.018,0.319,0.026,0.469,0.044,0.751
			c1.883-0.198,2.824-0.298,4.708-0.496c0.037-0.494,0.056-0.74,0.091-1.237c-1.147,0.176-1.721,0.264-2.87,0.438
			c1.112-1.513,1.717-2.499,3.03-4.127c0.03-0.433,0.045-0.651,0.074-1.087c-2.048,0.087-3.072,0.14-5.12,0.221
			c0.021,0.683,0.032,1.007,0.053,1.629C58.546,29.737,59.127,29.668,60.29,29.532z"/>
		<path d="M67.711,32.074c-1.148,0.105-1.724,0.154-2.871,0.321c1.311-1.726,2.017-2.652,3.525-3.753
			c0.086-0.308,0.129-0.455,0.216-0.736c-2.048-0.053-3.071-0.015-5.12,0.067c-0.046,0.479-0.066,0.722-0.113,1.208
			c1.164-0.128,1.744-0.189,2.908-0.295c-1.476,1.403-2.162,2.396-3.427,4.092c-0.034,0.392-0.051,0.588-0.085,0.982
			c1.883-0.198,2.825-0.299,4.708-0.497C67.555,32.89,67.606,32.613,67.711,32.074z"/>
		<path d="M72.219,28.742c-1.68,0.814-2.463,1.832-3.933,3.581c-0.086,0.421-0.13,0.635-0.216,1.075
			c1.883-0.198,2.824-0.298,4.708-0.496c0.17-0.498,0.256-0.739,0.426-1.216c-1.147,0.052-1.723,0.085-2.871,0.169
			c1.509-1.619,2.313-2.475,4.021-3.116c0.145-0.209,0.216-0.31,0.359-0.503c-2.048-0.178-3.07-0.23-5.119-0.3
			c-0.112,0.308-0.168,0.473-0.281,0.813C70.475,28.721,71.055,28.716,72.219,28.742z"/>
		<path d="M73.74,31.922c-0.139,0.36-0.207,0.543-0.344,0.915c1.883-0.199,2.824-0.299,4.707-0.497
			c0.238-0.292,0.357-0.438,0.595-0.722c-1.147-0.03-1.722-0.03-2.87-0.014c1.706-1.209,2.607-1.523,4.516-2.021
			c0.201-0.221,0.301-0.328,0.502-0.543c-2.047-0.37-3.071-0.507-5.119-0.711c-0.182,0.222-0.271,0.337-0.451,0.578
			c1.162,0.104,1.744,0.173,2.908,0.365C76.301,29.791,75.411,30.451,73.74,31.922z"/>
	</g>
</g>
<g>
</g>
<g>
</g>
<g>
</g>
<g>
</g>
<g>
</g>
<g>
</g>
<g>
</g>
<g>
</g>
<g>
</g>
<g>
</g>
<g>
</g>
<g>
</g>
<g>
</g>
<g>
</g>
<g>
</g>
</svg>
